<?xml version="1.0" standalone="no"?>
<!DOCTYPE svg PUBLIC "-//W3C//DTD SVG 20010904//EN"
 "http://www.w3.org/TR/2001/REC-SVG-20010904/DTD/svg10.dtd">
<svg version="1.0" xmlns="http://www.w3.org/2000/svg"
 width="344.000000pt" height="344.000000pt" viewBox="0 0 344.000000 344.000000"
 preserveAspectRatio="xMidYMid meet">
<metadata>
Created by potrace 1.11, written by Peter Selinger 2001-2013
</metadata>
<g transform="translate(0.000000,344.000000) scale(0.100000,-0.100000)"
fill="#000000" stroke="none">
<path d="M90 1845 l0 -1115 541 0 541 0 -7 -22 c-27 -84 -44 -159 -44 -195
l-1 -43 600 0 600 0 -1 43 c0 36 -17 111 -44 195 l-7 22 541 0 541 0 0 1115 0
1115 -1630 0 -1630 0 0 -1115z m3220 5 l0 -1080 -533 0 -534 0 -32 50 c-66
102 -207 200 -341 235 -71 19 -229 19 -300 0 -134 -35 -275 -133 -341 -235
l-32 -50 -534 0 -533 0 0 1080 0 1080 1590 0 1590 0 0 -1080z m-1408 -853 c91
-33 156 -77 227 -152 80 -86 140 -215 141 -302 l0 -23 -551 0 -552 0 7 52 c9
63 44 152 84 210 42 61 137 147 199 181 131 70 308 84 445 34z"/>
<path d="M955 2533 c-107 -14 -239 -75 -324 -150 -70 -61 -141 -171 -172 -264
-34 -106 -34 -263 0 -368 81 -245 311 -414 566 -415 173 -1 303 52 425 173
121 119 180 256 183 425 1 98 -14 168 -59 261 -111 234 -364 372 -619 338z
m75 -323 l0 -280 280 0 280 0 -6 -47 c-23 -195 -138 -361 -309 -443 -130 -63
-244 -75 -379 -40 -245 62 -416 283 -416 535 0 89 16 158 58 245 41 88 135
188 224 238 59 34 180 71 236 71 l32 1 0 -280z"/>
<path d="M1980 2450 l0 -40 390 0 390 0 0 40 0 40 -390 0 -390 0 0 -40z"/>
<path d="M1980 2105 l0 -45 345 0 345 0 0 45 0 45 -345 0 -345 0 0 -45z"/>
<path d="M1980 1765 l0 -45 390 0 390 0 0 45 0 45 -390 0 -390 0 0 -45z"/>
<path d="M1980 1420 l0 -40 215 0 215 0 0 40 0 40 -215 0 -215 0 0 -40z"/>
</g>
</svg>
