<?xml version="1.0" standalone="no"?>
<!DOCTYPE svg PUBLIC "-//W3C//DTD SVG 20010904//EN"
 "http://www.w3.org/TR/2001/REC-SVG-20010904/DTD/svg10.dtd">
<svg version="1.0" xmlns="http://www.w3.org/2000/svg"
 width="1024.000000pt" height="1024.000000pt" viewBox="0 0 1024.000000 1024.000000"
 preserveAspectRatio="xMidYMid meet">
<metadata>
Created by potrace 1.11, written by Peter Selinger 2001-2013
</metadata>
<g transform="translate(0.000000,1024.000000) scale(0.100000,-0.100000)"
fill="#000000" stroke="none">
<path d="M4920 10084 c-621 -35 -1173 -156 -1687 -370 -581 -242 -1053 -547
-1520 -983 -851 -795 -1397 -1890 -1530 -3071 -26 -225 -25 -848 0 -1080 86
-778 364 -1552 784 -2184 556 -835 1312 -1464 2223 -1851 773 -329 1654 -456
2485 -360 746 87 1431 325 2065 718 700 434 1309 1068 1705 1776 333 597 538
1233 612 1901 26 236 26 844 0 1080 -99 893 -427 1720 -969 2445 -328 437
-787 870 -1230 1159 -720 468 -1474 729 -2328 805 -126 12 -507 21 -610 15z
m351 -1281 c340 -343 344 -348 344 -483 0 -127 -15 -150 -236 -375 -156 -159
-188 -197 -194 -228 -14 -72 1 -104 85 -192 136 -142 134 -190 -17 -346 -52
-53 -109 -105 -128 -113 -24 -12 -65 -16 -154 -16 -87 0 -132 -4 -158 -15 -21
-9 -91 -69 -160 -137 -131 -130 -151 -164 -140 -235 3 -17 81 -182 172 -365
167 -332 167 -333 163 -390 -5 -62 -27 -96 -80 -124 -37 -19 -209 -19 -246 0
-15 8 -76 57 -137 110 -60 52 -128 104 -151 115 -51 26 -139 43 -179 36 -16
-3 -189 -58 -383 -122 -293 -97 -359 -122 -391 -149 -103 -89 -112 -254 -18
-352 38 -40 309 -179 444 -228 114 -41 256 -70 388 -79 55 -4 115 -13 133 -21
56 -23 150 -123 285 -304 138 -185 224 -283 269 -306 22 -12 148 -14 731 -14
668 0 708 -1 781 -20 144 -37 201 -75 404 -275 199 -195 265 -280 303 -392 21
-59 24 -86 24 -213 -1 -167 -19 -249 -85 -385 -54 -112 -96 -165 -288 -360
-199 -202 -214 -227 -270 -445 -24 -96 -87 -283 -165 -490 -68 -184 -150 -405
-182 -491 -31 -85 -60 -161 -65 -168 -20 -34 -528 -101 -761 -101 l-91 0 3
358 c2 334 1 363 -19 442 -70 284 -185 487 -451 793 -32 37 -75 98 -94 135
-68 129 -69 139 -76 632 -7 445 -7 445 -32 511 -14 37 -38 88 -54 115 -34 59
-124 155 -181 194 -70 49 -584 328 -1039 565 -281 146 -514 315 -725 525 -172
171 -171 170 -799 1102 l-173 257 89 173 c184 355 372 623 642 916 258 280
594 544 956 752 106 62 305 159 354 175 20 6 77 -18 294 -126 l269 -134 82 1
c68 0 89 4 133 27 72 37 114 76 149 139 28 51 29 59 34 213 l5 159 39 8 c66
14 287 36 372 37 l80 1 295 -297z m3504 -2085 c149 -339 259 -734 311 -1118
25 -187 30 -633 10 -824 -9 -82 -18 -151 -21 -154 -8 -9 -603 146 -658 171
-112 52 -143 87 -358 408 -111 166 -214 329 -230 363 -56 120 -56 272 0 391
15 33 122 202 238 375 251 376 261 387 471 494 129 66 148 73 159 59 7 -8 42
-83 78 -165z"/>
</g>
</svg>
